<?xml version="1.0" encoding="UTF-8"?><svg id="a" xmlns="http://www.w3.org/2000/svg" viewBox="0 0 925.93 805.57"><defs><style>.b{fill:#00f9e6;}</style></defs><path class="b" d="M902.81,407.07l-77.81-159.03C717.62,28.59,452.68-62.26,233.23,45.11l-112.43,55.01C13.93,152.42-30.32,281.45,21.97,388.32l82.79,169.21c107.37,219.45,372.32,310.31,591.77,202.93l102.25-50.03c112.5-55.04,159.07-190.86,104.03-303.36Zm-65.63,17.31c-130.11,67.95-255.75,133.55-385.27,201.19-11.68-113.33-22.87-221.9-34.54-335.12-73.82,38.43-143.16,74.53-213.14,110.97,31.27,36.39,54.71,41.29,93.04,21.46,19.52-10.1,39.18-19.92,58.88-29.64,1.59-.79,3.96,.14,9.48,.51,6.22,61.31,12.51,123.26,19.55,192.63-40.21-20.99-84.88-26.24-78.11-92.15-43.84,41.63-73.53,11.94-104.96-4.65-35.92-18.95-71.64-38.29-109.89-58.98-19.94-10.78-19.73-39.46,.36-49.95,129.99-67.85,255.17-133.19,384.41-200.64,11.55,113.59,22.53,221.62,34.11,335.47,74.1-38.69,143.94-75.15,214.77-112.13-37.37-38.16-55.08-41.16-97.6-18.87-20.09,10.53-40.31,20.77-64.54,33.23-6.89-67.31-13.32-130.17-20.35-198.88,40.76,20.11,86.04,25.64,76.94,93.22,46.57-43.36,77.64-12.25,110.69,5.22,34.65,18.32,69.13,36.97,106.51,57.18,19.94,10.78,19.73,39.46-.36,49.95Z"/></svg>